<?xml version="1.0" encoding="UTF-8"?>
<svg width="92px" height="62px" viewBox="54 70 92 62" version="1.1" xmlns="http://www.w3.org/2000/svg" xmlns:xlink="http://www.w3.org/1999/xlink">
    <title>ClawDrama</title>
    <defs>
        <linearGradient x1="50%" y1="0%" x2="50%" y2="100%" id="claw-gradient-asset">
            <stop stop-color="#C2F84E" offset="0%"></stop>
            <stop stop-color="#8FEF26" offset="100%"></stop>
        </linearGradient>
    </defs>
    <g stroke="none" stroke-width="1" fill="none" fill-rule="evenodd">
        <path d="M126.973367,74.611399 L126.973367,87.6539402 L140.932642,95.4497682 L140.932642,113.38067 L126.973367,113.38067 L126.973367,87.6547697 L73.0266334,87.6547697 L73.0266334,74.611399 L126.973367,74.611399 Z M109.850452,91.28956 L113.962255,95.4089558 L109.726303,99.6544386 L113.962255,103.90158 L109.850452,108.019317 L105.616155,103.773834 L101.50104,99.6594157 L105.611189,95.5300657 L109.850452,91.28956 Z M91.8508816,92.3757334 L91.8508816,106.933807 L86.0374135,106.933807 L86.0374135,92.3757334 L91.8508816,92.3757334 Z M59.0673575,87.6541061 L59.0673575,105.583349 L73.0266334,113.380836 L73.0266334,87.6541061 L59.0673575,87.6541061 Z M107.10958,126.42487 L126.973367,126.42487 L126.973367,113.3815 L107.10958,113.3815 L107.10958,126.42487 Z M73.0266334,126.42487 L93.1519596,126.42487 L93.1519596,113.3815 L73.0266334,113.3815 L73.0266334,126.42487 Z" fill="url(#claw-gradient-asset)"></path>
    </g>
</svg>
